<?xml version="1.0" encoding="UTF-8"?>
<svg xmlns="http://www.w3.org/2000/svg" xmlns:xlink="http://www.w3.org/1999/xlink" width="111px" height="111px" viewBox="0 0 111 111" version="1.1">
<g id="surface1">
<path style=" stroke:none;fill-rule:nonzero;fill:rgb(80.784315%,0%,21.568628%);fill-opacity:1;" d="M 103.707031 43.757812 L 83.375 78.886719 L 70.753906 100.746094 C 69.808594 102.382812 68.0625 103.390625 66.171875 103.390625 L 44.820312 103.390625 C 42.933594 103.390625 41.183594 102.382812 40.238281 100.746094 L 27.617188 78.886719 L 7.285156 43.757812 C 6.339844 42.125 6.339844 40.105469 7.28125 38.46875 L 17.949219 19.941406 C 18.894531 18.300781 20.640625 17.292969 22.53125 17.289062 L 27.375 17.285156 L 25.261719 20.953125 L 23.507812 23.996094 C 22.882812 25.082031 22.882812 26.421875 23.511719 27.507812 L 37 50.8125 L 45.375 65.316406 C 46.003906 66.40625 47.160156 67.074219 48.417969 67.074219 L 62.578125 67.074219 C 63.832031 67.074219 64.992188 66.40625 65.621094 65.316406 L 73.996094 50.8125 L 87.484375 27.507812 C 88.113281 26.421875 88.113281 25.082031 87.488281 23.996094 L 85.734375 20.953125 L 83.621094 17.285156 L 88.464844 17.289062 C 90.355469 17.292969 92.101562 18.300781 93.042969 19.941406 L 101.070312 33.878906 L 103.714844 38.46875 C 104.65625 40.105469 104.65625 42.125 103.707031 43.757812 M 35.769531 16.296875 L 36.851562 14.417969 L 40.136719 8.714844 C 40.523438 8.042969 41.238281 7.632812 42.007812 7.628906 L 49.234375 7.625 L 49.226562 7.609375 L 55.496094 7.617188 L 61.765625 7.609375 L 61.757812 7.625 L 68.980469 7.628906 C 69.753906 7.632812 70.46875 8.042969 70.855469 8.714844 L 74.140625 14.417969 L 75.21875 16.296875 C 75.605469 16.964844 75.605469 17.792969 75.21875 18.460938 L 66.898438 32.832031 L 61.734375 41.777344 C 61.347656 42.445312 60.632812 42.859375 59.859375 42.859375 L 51.128906 42.859375 C 50.355469 42.859375 49.640625 42.445312 49.253906 41.777344 L 44.089844 32.832031 L 35.773438 18.460938 C 35.386719 17.792969 35.382812 16.964844 35.769531 16.296875 "/>
</g>
</svg>
